<?xml version="1.0" standalone="no"?>
        <!DOCTYPE svg PUBLIC "-//W3C//DTD SVG 1.1//EN" 
        "http://www.w3.org/Graphics/SVG/1.1/DTD/svg11.dtd">  <svg xmlns="http://www.w3.org/2000/svg" xmlns:xlink="http://www.w3.org/1999/xlink" width="40" zoomAndPan="magnify" viewBox="0 0 30 30.000001" height="40" preserveAspectRatio="xMidYMid meet" version="1.0"><defs><clipPath id="id1"><path d="M 7 6.984375 L 26.925781 6.984375 L 26.925781 13 L 7 13 Z M 7 6.984375 " clip-rule="nonzero"/></clipPath><clipPath id="id2"><path d="M 7 18 L 26.925781 18 L 26.925781 24.40625 L 7 24.40625 Z M 7 18 " clip-rule="nonzero"/></clipPath><clipPath id="id3"><path d="M 2.972656 11 L 10 11 L 10 21 L 2.972656 21 Z M 2.972656 11 " clip-rule="nonzero"/></clipPath><clipPath id="id4"><path d="M 2.972656 9 L 12 9 L 12 22 L 2.972656 22 Z M 2.972656 9 " clip-rule="nonzero"/></clipPath><clipPath id="id5"><path d="M 2.972656 7 L 26.925781 7 L 26.925781 24.40625 L 2.972656 24.40625 Z M 2.972656 7 " clip-rule="nonzero"/></clipPath><clipPath id="id6"><path d="M 5 6.984375 L 26.925781 6.984375 L 26.925781 24.40625 L 5 24.40625 Z M 5 6.984375 " clip-rule="nonzero"/></clipPath></defs><g clip-path="url(#id1)"><path fill="rgb(87.059021%, 21.958923%, 18.818665%)" d="M 24.257812 6.984375 L 7.304688 6.984375 L 15.617188 12.679688 L 26.917969 12.679688 L 26.917969 9.667969 C 26.917969 8.1875 25.726562 6.984375 24.257812 6.984375 Z M 24.257812 6.984375 " fill-opacity="1" fill-rule="nonzero"/></g><g clip-path="url(#id2)"><path fill="rgb(0%, 13.729858%, 58.428955%)" d="M 7.304688 24.40625 L 24.257812 24.40625 C 25.726562 24.40625 26.917969 23.207031 26.917969 21.726562 L 26.917969 18.710938 L 15.617188 18.710938 Z M 7.304688 24.40625 " fill-opacity="1" fill-rule="nonzero"/></g><g clip-path="url(#id3)"><path fill="rgb(7.839966%, 7.839966%, 7.839966%)" d="M 2.984375 11.007812 L 2.984375 20.386719 L 9.964844 15.695312 Z M 2.984375 11.007812 " fill-opacity="1" fill-rule="nonzero"/></g><g clip-path="url(#id4)"><path fill="rgb(100%, 71.369934%, 6.669617%)" d="M 2.984375 9.667969 L 2.984375 11.007812 L 9.964844 15.695312 L 2.984375 20.386719 L 2.984375 21.726562 L 11.957031 15.695312 Z M 2.984375 9.667969 " fill-opacity="1" fill-rule="nonzero"/></g><g clip-path="url(#id5)"><path fill="rgb(0%, 47.839355%, 30.198669%)" d="M 5.335938 7.003906 C 4.011719 7.160156 2.984375 8.289062 2.984375 9.667969 L 11.957031 15.695312 L 2.984375 21.726562 C 2.984375 23.101562 4.011719 24.234375 5.335938 24.386719 L 15.28125 17.371094 L 26.917969 17.371094 L 26.917969 14.019531 L 15.28125 14.019531 Z M 5.335938 7.003906 " fill-opacity="1" fill-rule="nonzero"/></g><g clip-path="url(#id6)"><path fill="rgb(93.328857%, 93.328857%, 93.328857%)" d="M 7.304688 6.984375 L 5.644531 6.984375 C 5.539062 6.984375 5.4375 6.992188 5.335938 7.003906 L 15.28125 14.019531 L 26.917969 14.019531 L 26.917969 12.679688 L 15.617188 12.679688 Z M 5.335938 24.386719 C 5.4375 24.398438 5.539062 24.40625 5.644531 24.40625 L 7.304688 24.40625 L 15.617188 18.710938 L 26.917969 18.710938 L 26.917969 17.371094 L 15.28125 17.371094 Z M 5.335938 24.386719 " fill-opacity="1" fill-rule="nonzero"/></g></svg>  